<mxfile host="app.diagrams.net" modified="2023-02-01T08:37:34.317Z" agent="5.0 (Macintosh; Intel Mac OS X 10_15_7) AppleWebKit/537.36 (KHTML, like Gecko) Chrome/111.0.0.0 Safari/537.36" etag="Rt2LAQgxNnQQYFx88W-Y" version="20.8.13" type="github">
  <diagram name="第 1 页" id="SuWY5tRmbjAR-denhEyC">
    <mxGraphModel dx="2915" dy="1149" grid="0" gridSize="10" guides="1" tooltips="1" connect="1" arrows="1" fold="1" page="0" pageScale="1" pageWidth="827" pageHeight="1169" math="0" shadow="0">
      <root>
        <mxCell id="0" />
        <mxCell id="1" parent="0" />
        <mxCell id="EzHRUMghn_3tHymHahKF-5" style="edgeStyle=orthogonalEdgeStyle;sketch=1;hachureGap=4;jiggle=2;curveFitting=1;orthogonalLoop=1;jettySize=auto;html=1;fontFamily=Architects Daughter;fontSource=https%3A%2F%2Ffonts.googleapis.com%2Fcss%3Ffamily%3DArchitects%2BDaughter;fontSize=16;" edge="1" parent="1" source="EzHRUMghn_3tHymHahKF-1" target="EzHRUMghn_3tHymHahKF-4">
          <mxGeometry relative="1" as="geometry" />
        </mxCell>
        <mxCell id="EzHRUMghn_3tHymHahKF-1" value="sdfadsf" style="text;html=1;align=center;verticalAlign=middle;resizable=0;points=[];autosize=1;strokeColor=none;fillColor=none;fontSize=20;fontFamily=Architects Daughter;" vertex="1" parent="1">
          <mxGeometry x="64" y="229" width="93" height="36" as="geometry" />
        </mxCell>
        <mxCell id="EzHRUMghn_3tHymHahKF-2" value="wuhao 你好啊啊" style="text;html=1;align=center;verticalAlign=middle;resizable=0;points=[];autosize=1;strokeColor=none;fillColor=none;fontSize=20;fontFamily=Architects Daughter;" vertex="1" parent="1">
          <mxGeometry x="26" y="362" width="164" height="36" as="geometry" />
        </mxCell>
        <mxCell id="EzHRUMghn_3tHymHahKF-3" value="士大夫四谛法洞是" style="text;html=1;align=center;verticalAlign=middle;resizable=0;points=[];autosize=1;strokeColor=none;fillColor=none;fontSize=20;fontFamily=Architects Daughter;" vertex="1" parent="1">
          <mxGeometry x="-262" y="162" width="178" height="36" as="geometry" />
        </mxCell>
        <mxCell id="EzHRUMghn_3tHymHahKF-4" value="for example&amp;nbsp;" style="text;html=1;align=center;verticalAlign=middle;resizable=0;points=[];autosize=1;strokeColor=none;fillColor=none;fontSize=20;fontFamily=Architects Daughter;" vertex="1" parent="1">
          <mxGeometry x="281" y="388" width="139" height="36" as="geometry" />
        </mxCell>
      </root>
    </mxGraphModel>
  </diagram>
</mxfile>
